<svg xmlns="http://www.w3.org/2000/svg" version="1.1" xmlns:xlink="http://www.w3.org/1999/xlink" xmlns:svgjs="http://svgjs.com/svgjs" width="94" height="79"><svg xmlns="http://www.w3.org/2000/svg" viewBox="0 0 94 79"><defs><style>.a{fill:#1da1f2;}</style></defs><path class="a" d="M23.08,47.87a15.07,15.07,0,0,0,7.66-1.69,5.23,5.23,0,0,0,2.89-4.73,6,6,0,0,0-1-3.42A8.6,8.6,0,0,0,29,35.41a63.07,63.07,0,0,0-8.29-2.72,44.35,44.35,0,0,1-9.14-3.35,15.91,15.91,0,0,1-6.09-5.15,13.75,13.75,0,0,1-2.17-8A13.93,13.93,0,0,1,5.94,7.75a17.16,17.16,0,0,1,7.7-5.7A32.19,32.19,0,0,1,25.8,0,36.81,36.81,0,0,1,38,1.83a34.4,34.4,0,0,1,9,4.59l-5.53,8.35a32.12,32.12,0,0,0-7.09-3.45A24.67,24.67,0,0,0,26.11,10q-4.77,0-6.94,1.4A4.36,4.36,0,0,0,17,15.28a4.31,4.31,0,0,0,1.1,3,10.71,10.71,0,0,0,4,2.33c1.93.75,4.69,1.63,8.27,2.67a49.63,49.63,0,0,1,9.19,3.42,15.35,15.35,0,0,1,6.06,5.23,15.26,15.26,0,0,1,2.16,8.55,14.31,14.31,0,0,1-3.44,9.84,20.42,20.42,0,0,1-9,5.78A37.78,37.78,0,0,1,23.14,58,36.8,36.8,0,0,1,9.73,55.74,32.19,32.19,0,0,1,0,50l7-8a29.13,29.13,0,0,0,7.24,4.21A23.32,23.32,0,0,0,23.08,47.87Z"></path><path class="a" d="M33.39,26.82H88.73l-1.49,9.8H33.39Z"></path><path class="a" d="M94,4.07l-3.91,9.18a26.39,26.39,0,0,0-5.66-1.6,35.51,35.51,0,0,0-6-.51c-3.41,0-5.91.59-7.41,1.94s-2.33,3.36-2.33,6.14V60.9a18,18,0,0,1-2.57,9.43,18,18,0,0,1-7.41,6.4A27.09,27.09,0,0,1,47.17,79a48,48,0,0,1-9.65-.84A44.18,44.18,0,0,1,30,75.8l3.9-9.26a24.12,24.12,0,0,0,5.66,1.68,34.69,34.69,0,0,0,5.91.51c3.41,0,5.9-.67,7.48-1.94s2.33-3.37,2.33-6.23V18.89a16.76,16.76,0,0,1,2.58-9.35,17.21,17.21,0,0,1,7.32-6.4A25.79,25.79,0,0,1,76.7.79a47,47,0,0,1,9.65.92A39,39,0,0,1,94,4.07Z"></path></svg><style>@media (prefers-color-scheme: light) { :root { filter: none; } }
</style></svg>