<svg xmlns="http://www.w3.org/2000/svg" viewBox="0 0 512 84"><defs><style>.a{fill:#fff;}.b{fill:#1da1f2;}</style></defs><path class="a" d="M146.68,59.09a12,12,0,0,0,6.1-1.35A4.16,4.16,0,0,0,155.09,54a4.77,4.77,0,0,0-.76-2.73,6.79,6.79,0,0,0-3-2.09,49.64,49.64,0,0,0-6.6-2.17,35.88,35.88,0,0,1-7.29-2.67,12.82,12.82,0,0,1-4.85-4.12,11,11,0,0,1-1.73-6.37A11.18,11.18,0,0,1,133,27a13.76,13.76,0,0,1,6.14-4.55,25.66,25.66,0,0,1,9.68-1.63,29.39,29.39,0,0,1,9.71,1.46A26.9,26.9,0,0,1,165.69,26l-4.4,6.66a25.94,25.94,0,0,0-5.65-2.75,19.69,19.69,0,0,0-6.55-1.06q-3.79,0-5.53,1.12a3.51,3.51,0,0,0-1.73,3.1,3.4,3.4,0,0,0,.88,2.38,8.32,8.32,0,0,0,3.18,1.86q2.3.9,6.59,2.13a40.27,40.27,0,0,1,7.32,2.74,12.09,12.09,0,0,1,4.83,4.18,12.22,12.22,0,0,1,1.71,6.82A11.43,11.43,0,0,1,163.61,61a16.33,16.33,0,0,1-7.2,4.62,30,30,0,0,1-9.69,1.51A29.22,29.22,0,0,1,136,65.38a25.7,25.7,0,0,1-7.75-4.59l5.58-6.38a23.12,23.12,0,0,0,5.78,3.36A18.44,18.44,0,0,0,146.68,59.09Z"/><path class="a" d="M190,3.56V27A17.79,17.79,0,0,1,196,22.39a16.81,16.81,0,0,1,7-1.53q6,0,8.95,3.41t3,9.58V65.92H204.24V36.29c0-2.65-.4-4.52-1.21-5.63S200.87,29,198.93,29a7.41,7.41,0,0,0-3.32.8,12.36,12.36,0,0,0-3,2.18A23.19,23.19,0,0,0,190,35.05V65.92H179.19V4.63Z"/><path class="a" d="M246.09,20.86A20,20,0,0,1,257,23.71a18.08,18.08,0,0,1,6.83,8.05A29.15,29.15,0,0,1,266.2,43.9a29.55,29.55,0,0,1-2.37,12.33A18.13,18.13,0,0,1,257,64.3a19.9,19.9,0,0,1-10.93,2.86,20.32,20.32,0,0,1-10.91-2.79,17.86,17.86,0,0,1-6.88-8A29.8,29.8,0,0,1,225.9,44a29.14,29.14,0,0,1,2.36-12.09,18.6,18.6,0,0,1,6.9-8.13A19.79,19.79,0,0,1,246.09,20.86Zm0,8.23a7.39,7.39,0,0,0-6.75,3.6q-2.22,3.6-2.23,11.3t2.21,11.36a8.13,8.13,0,0,0,13.46,0Q255,51.77,255,43.9q0-7.65-2.2-11.23A7.32,7.32,0,0,0,246.09,29.09Z"/><path class="a" d="M277.5,65.92V58.34h6.07V29.63H277.5V22.1h14.27l2,10a20.76,20.76,0,0,1,6-8.42,14.09,14.09,0,0,1,9-2.83,18.45,18.45,0,0,1,3.69.33,20.77,20.77,0,0,1,3.08.87l-3.22,9.18a24.27,24.27,0,0,0-2.41-.51,15.31,15.31,0,0,0-2.57-.19,10.39,10.39,0,0,0-7.81,3.54,24,24,0,0,0-5.16,9.58V58.34H303v7.58Zm28.92-26.73V27.56l1.47-5.46h7.62L313.6,39.19Z"/><path class="a" d="M363.32,63.48a21.84,21.84,0,0,1-5.83,2.64,25.61,25.61,0,0,1-7.43,1q-7.9,0-11.91-4.16t-4-11.07V29.83h-9.38V22.1h9.38V12.46l10.77-1.33v11H359.2l-1.1,7.73H344.92V51.89q0,3.39,1.64,5c1.08,1,2.84,1.57,5.26,1.57a15.41,15.41,0,0,0,4.26-.56,17.25,17.25,0,0,0,3.53-1.43Z"/><path class="a" d="M399.83,22.1V58.18h11.38v7.74h-34.8V58.18h12.65V29.83H376.82V22.1Zm-7-22.1a6.54,6.54,0,0,1,4.84,1.86,6.33,6.33,0,0,1,1.85,4.64,6.37,6.37,0,0,1-1.85,4.65,7.18,7.18,0,0,1-9.69,0,6.32,6.32,0,0,1-1.88-4.65A6.28,6.28,0,0,1,388,1.86,6.6,6.6,0,0,1,392.85,0Z"/><path class="a" d="M450.73,3.43a37.36,37.36,0,0,1,7.67.71A31,31,0,0,1,464.48,6l-3.1,7.37a20.93,20.93,0,0,0-4.53-1.33,27.89,27.89,0,0,0-4.73-.41q-4.08,0-5.93,1.55c-1.24,1-1.86,2.68-1.86,5v6.91h14.28l-1.19,7.82H444.33v33H433.6v-33h-9.5V25.08h9.5V17.92a13.81,13.81,0,0,1,2-7.51,13.82,13.82,0,0,1,5.89-5.11A21,21,0,0,1,450.73,3.43Z"/><path class="a" d="M512,22.1,497.36,66a33,33,0,0,1-4.65,9.23,20.85,20.85,0,0,1-7.2,6.1A26.91,26.91,0,0,1,474.88,84l-1.35-7.9a24.76,24.76,0,0,0,7-1.87A11.27,11.27,0,0,0,484.69,71a19.49,19.49,0,0,0,2.71-5h-3.67L469.58,22.1H481l9.79,36.53L500.94,22.1Z"/><path class="b" d="M22.94,48.07a14.88,14.88,0,0,0,7.61-1.68,5.18,5.18,0,0,0,2.87-4.71,5.92,5.92,0,0,0-.94-3.41,8.36,8.36,0,0,0-3.69-2.6A61.36,61.36,0,0,0,20.55,33a44.2,44.2,0,0,1-9.08-3.33,15.9,15.9,0,0,1-6.05-5.13,13.75,13.75,0,0,1-2.16-7.95A14,14,0,0,1,5.9,8.11a17.19,17.19,0,0,1,7.66-5.68,32,32,0,0,1,12.08-2A36.42,36.42,0,0,1,37.75,2.22a33.66,33.66,0,0,1,8.9,4.57L41.16,15.1a32,32,0,0,0-7-3.43A24.67,24.67,0,0,0,26,10.35c-3.16,0-5.46.47-6.9,1.39a4.38,4.38,0,0,0-2.16,3.88,4.31,4.31,0,0,0,1.09,3,10.6,10.6,0,0,0,4,2.32q2.88,1.11,8.22,2.66A50,50,0,0,1,39.3,27a15.14,15.14,0,0,1,6,5.21,15.31,15.31,0,0,1,2.14,8.51,14.31,14.31,0,0,1-3.41,9.81,20.37,20.37,0,0,1-9,5.75A37.35,37.35,0,0,1,23,58.14,36.61,36.61,0,0,1,9.67,55.92,32,32,0,0,1,0,50.19l7-7.95a28.94,28.94,0,0,0,7.2,4.19A23.2,23.2,0,0,0,22.94,48.07Z"/><path class="b" d="M33.18,27.11h55l-1.47,9.75H33.18Z"/><path class="b" d="M93.43,4.45l-3.88,9.14A26.72,26.72,0,0,0,83.92,12a36.11,36.11,0,0,0-6-.5c-3.39,0-5.87.59-7.36,1.93s-2.31,3.35-2.31,6.12V61.05a18,18,0,0,1-2.56,9.4,17.94,17.94,0,0,1-7.36,6.37,26.79,26.79,0,0,1-11.49,2.26,48,48,0,0,1-9.59-.83,45,45,0,0,1-7.53-2.35l3.89-9.23a24.43,24.43,0,0,0,5.62,1.68,35.34,35.34,0,0,0,5.87.5c3.39,0,5.87-.67,7.44-1.93s2.32-3.35,2.32-6.2V19.21A16.67,16.67,0,0,1,57.47,9.9a17,17,0,0,1,7.27-6.38,25.69,25.69,0,0,1,11.5-2.35,46.4,46.4,0,0,1,9.59.93A37.83,37.83,0,0,1,93.43,4.45Z"/></svg>